<svg width="16" height="17" viewBox="0 0 16 17" fill="none" xmlns="http://www.w3.org/2000/svg">
<path d="M8.00224 0.511196C6.95132 0.505468 5.90971 0.708235 4.93768 1.10776C3.96565 1.50729 3.08252 2.09564 2.3394 2.83876C1.59628 3.58188 1.00793 4.46501 0.608402 5.43704C0.208876 6.40906 0.00610847 7.45068 0.0118368 8.5016C0.00610847 9.55251 0.208876 10.5941 0.608402 11.5662C1.00793 12.5382 1.59628 13.4213 2.3394 14.1644C3.08252 14.9076 3.96565 15.4959 4.93768 15.8954C5.90971 16.295 6.95132 16.4977 8.00224 16.492C9.05315 16.4977 10.0948 16.295 11.0668 15.8954C12.0388 15.4959 12.922 14.9076 13.6651 14.1644C14.4082 13.4213 14.9965 12.5382 15.3961 11.5662C15.7956 10.5941 15.9984 9.55251 15.9926 8.5016C15.9984 7.45068 15.7956 6.40906 15.3961 5.43704C14.9965 4.46501 14.4082 3.58188 13.6651 2.83876C12.922 2.09564 12.0388 1.50729 11.0668 1.10776C10.0948 0.708235 9.05315 0.505468 8.00224 0.511196ZM11.8926 5.3048L10.7126 7.1808L9.94864 8.432V8.5712C9.94821 9.1056 9.73563 9.61796 9.3576 9.99569C8.97957 10.3734 8.46704 10.5856 7.93264 10.5856H7.79424L6.54384 11.3504L4.66784 12.5312C4.59824 12.6008 4.52864 12.6008 4.38944 12.6008C4.26064 12.5981 4.13723 12.5486 4.04224 12.4616C3.90304 12.3232 3.83424 12.0456 3.97264 11.8368L5.15424 9.9608L5.91824 8.7096V8.5712C5.91824 8.03666 6.13053 7.524 6.50843 7.14595C6.88633 6.7679 7.3989 6.55541 7.93344 6.5552H8.07264L9.32304 5.7912L11.199 4.6104C11.407 4.4712 11.6854 4.5408 11.8246 4.68C12.0326 4.8184 12.0326 5.096 11.8934 5.3048H11.8926ZM7.02864 8.5016C7.02864 9.0576 7.44624 9.4744 8.00224 9.4744C8.55824 9.4744 8.97504 9.0576 8.97504 8.5016C8.97504 7.9456 8.55824 7.5288 8.00224 7.5288C7.44624 7.5288 7.02944 7.9448 7.02944 8.5016H7.02864Z" fill="white"/>
</svg>
