<svg width="16" height="17" viewBox="0 0 16 17" fill="none" xmlns="http://www.w3.org/2000/svg">
<path d="M0 10.4812C0 10.4812 9.28563 12.3776 10.9122 1.12615C10.9122 0.966262 4.06663 4.08643 4.06663 4.08643L6.51371 4.72559C6.51371 4.72559 6.55933 7.96704 0 10.4812Z" fill="white"/>
<path d="M1.29433 12.5683H15.2226C15.4592 12.5683 15.5775 12.6866 15.5775 12.9232V15.1281C15.5775 15.3647 15.4592 15.483 15.2226 15.483H1.29433C1.05774 15.483 0.939453 15.3647 0.939453 15.1281V12.9232C0.939453 12.6866 1.05774 12.5683 1.29433 12.5683Z" fill="white"/>
<path d="M15.3606 1.87296H13.2282C12.9896 2.4431 12.5388 3.528 11.8926 4.78761H15.3606C15.3891 4.78761 15.4174 4.78199 15.4437 4.77107C15.4701 4.76016 15.494 4.74416 15.5142 4.72399C15.5344 4.70382 15.5504 4.67987 15.5613 4.65352C15.5722 4.62716 15.5778 4.59892 15.5778 4.57039V2.08978C15.5778 2.06127 15.5722 2.03305 15.5613 2.00671C15.5504 1.98038 15.5343 1.95646 15.5142 1.93632C15.494 1.91618 15.47 1.90022 15.4437 1.88935C15.4173 1.87847 15.3891 1.8729 15.3606 1.87296Z" fill="white"/>
<path d="M15.3628 7.22064H10.5088C9.86676 8.255 9.12106 9.22127 8.2832 10.1045C8.31463 10.1243 8.35096 10.135 8.38811 10.1353H15.3624C15.3909 10.1353 15.4191 10.1297 15.4455 10.1188C15.4718 10.1078 15.4958 10.0918 15.516 10.0717C15.5361 10.0515 15.5521 10.0276 15.563 10.0012C15.574 9.97485 15.5796 9.94661 15.5796 9.91808V7.43747C15.5795 7.37999 15.5566 7.3249 15.516 7.28426C15.4753 7.24362 15.4202 7.22075 15.3628 7.22064Z" fill="white"/>
</svg>
